{
  "source": "C:\\Users\\Peter\\Desktop\\stuff\\MIUN\\quantitative_research\\video_compression\\videos\\BVI-HD\\BVI-HD_CDVL_videos\\ORIG\\Fountain_1920x1080_50fps.mp4",
  "output": "C:\\Users\\Peter\\Desktop\\stuff\\MIUN\\quantitative_research\\video_compression\\compressed_videos\\BVI-HD\\vp9\\1.5\\Fountain_1920x1080_50fps_vp9.webm",
  "codec": "vp9",
  "ok": "Input #0, mov,mp4,m4a,3gp,3g2,mj2, from 'C:\\Users\\Peter\\Desktop\\stuff\\MIUN\\quantitative_research\\video_compression\\videos\\BVI-HD\\BVI-HD_CDVL_videos\\ORIG\\Fountain_1920x1080_50fps.mp4':\n  Metadata:\n    major_brand     : isom\n    minor_version   : 512\n    compatible_brands: isomiso2avc1mp41\n    encoder         : Lavf54.28.101\n  Duration: 00:00:05.00, start: 0.000000, bitrate: 603457 kb/s\n  Stream #0:0[0x1](und): Video: h264 (High 4:4:4 Predictive) (avc1 / 0x31637661), yuv420p(progressive), 1920x1080, 603453 kb/s, 50 fps, 50 tbr, 50 tbn (default)\n    Metadata:\n      handler_name    : VideoHandler\n      vendor_id       : [0][0][0][0]\n[out#0/webm @ 0000019099f592c0] Codec AVOption b:a (set bitrate (in bits/s)) has not been used for any stream. The most likely reason is either wrong type (e.g. a video option with no video streams) or that it is a private option of some decoder which was not actually used for any stream.\nStream mapping:\n  Stream #0:0 -> #0:0 (h264 (native) -> vp9 (libvpx-vp9))\nPress [q] to stop, [?] for help\n[libvpx-vp9 @ 000001909aa80b40] v1.15.2-100-g40561f514\nOutput #0, webm, to 'C:\\Users\\Peter\\Desktop\\stuff\\MIUN\\quantitative_research\\video_compression\\compressed_videos\\BVI-HD\\vp9\\1.5\\Fountain_1920x1080_50fps_vp9.webm':\n  Metadata:\n    major_brand     : isom\n    minor_version   : 512\n    compatible_brands: isomiso2avc1mp41\n    encoder         : Lavf62.3.100\n  Stream #0:0(und): Video: vp9, yuv420p(tv, progressive), 1920x1080, q=2-31, 1500 kb/s, 50 fps, 1k tbn (default)\n    Metadata:\n      encoder         : Lavc62.11.100 libvpx-vp9\n      handler_name    : VideoHandler\n      vendor_id       : [0][0][0][0]\n    Side data:\n      cpb: bitrate max/min/avg: 0/0/0 buffer size: 1500000 vbv_delay: N/A\nframe=    0 fps=0.0 q=0.0 size=       0KiB time=N/A bitrate=N/A speed=N/A elapsed=0:00:00.51    \nframe=    5 fps=4.3 q=57.0 size=       1KiB time=00:00:00.10 bitrate=  50.7kbits/s speed=0.0856x elapsed=0:00:01.16    \nframe=   11 fps=6.5 q=58.0 size=       1KiB time=00:00:00.22 bitrate=  23.1kbits/s speed=0.13x elapsed=0:00:01.68    \nframe=   17 fps=7.7 q=58.0 size=       1KiB time=00:00:00.34 bitrate=  14.9kbits/s speed=0.153x elapsed=0:00:02.21    \nframe=   22 fps=8.0 q=58.0 size=       1KiB time=00:00:00.44 bitrate=  11.5kbits/s speed=0.16x elapsed=0:00:02.75    \nframe=   28 fps=8.5 q=58.0 size=       1KiB time=00:00:00.54 bitrate=   9.4kbits/s speed=0.164x elapsed=0:00:03.28    \nframe=   33 fps=8.7 q=58.0 size=       1KiB time=00:00:00.66 bitrate=   7.7kbits/s speed=0.173x elapsed=0:00:03.81    \nframe=   37 fps=8.5 q=58.0 size=       1KiB time=00:00:00.74 bitrate=   6.9kbits/s speed=0.17x elapsed=0:00:04.35    \nframe=   41 fps=8.4 q=58.0 size=       1KiB time=00:00:00.82 bitrate=   6.2kbits/s speed=0.168x elapsed=0:00:04.87    \nframe=   45 fps=8.3 q=59.0 size=       1KiB time=00:00:00.90 bitrate=   5.6kbits/s speed=0.166x elapsed=0:00:05.40    \nframe=   50 fps=8.4 q=59.0 size=       1KiB time=00:00:01.00 bitrate=   5.1kbits/s speed=0.168x elapsed=0:00:05.93    \nframe=   53 fps=8.2 q=59.0 size=       1KiB time=00:00:01.06 bitrate=   4.8kbits/s speed=0.164x elapsed=0:00:06.45    \nframe=   57 fps=8.2 q=59.0 size=       1KiB time=00:00:01.14 bitrate=   4.4kbits/s speed=0.164x elapsed=0:00:06.96    \nframe=   62 fps=8.3 q=59.0 size=       1KiB time=00:00:01.24 bitrate=   4.1kbits/s speed=0.166x elapsed=0:00:07.48    \nframe=   66 fps=8.2 q=58.0 size=       1KiB time=00:00:01.32 bitrate=   3.8kbits/s speed=0.165x elapsed=0:00:08.00    \nframe=   70 fps=8.2 q=47.0 size=       1KiB time=00:00:01.40 bitrate=   3.6kbits/s speed=0.164x elapsed=0:00:08.51    \nframe=   75 fps=8.3 q=58.0 size=       1KiB time=00:00:01.50 bitrate=   3.4kbits/s speed=0.166x elapsed=0:00:09.03    \nframe=   79 fps=8.2 q=58.0 size=       1KiB time=00:00:01.58 bitrate=   3.2kbits/s speed=0.165x elapsed=0:00:09.58    \nframe=   83 fps=8.2 q=58.0 size=       1KiB time=00:00:01.66 bitrate=   3.1kbits/s speed=0.164x elapsed=0:00:10.10    \nframe=   87 fps=8.2 q=58.0 size=       1KiB time=00:00:01.74 bitrate=   2.9kbits/s speed=0.163x elapsed=0:00:10.64    \nframe=   92 fps=8.2 q=58.0 size=       1KiB time=00:00:01.84 bitrate=   2.8kbits/s speed=0.165x elapsed=0:00:11.18    \nframe=   96 fps=8.2 q=59.0 size=       1KiB time=00:00:01.92 bitrate=   2.6kbits/s speed=0.164x elapsed=0:00:11.70    \nframe=  100 fps=8.2 q=47.0 size=       1KiB time=00:00:02.00 bitrate=   2.5kbits/s speed=0.164x elapsed=0:00:12.22    \nframe=  105 fps=8.2 q=59.0 size=       1KiB time=00:00:02.10 bitrate=   2.4kbits/s speed=0.165x elapsed=0:00:12.74    \nframe=  109 fps=8.2 q=59.0 size=       1KiB time=00:00:02.18 bitrate=   2.3kbits/s speed=0.164x elapsed=0:00:13.27    \nframe=  113 fps=8.2 q=60.0 size=       1KiB time=00:00:02.26 bitrate=   2.2kbits/s speed=0.164x elapsed=0:00:13.81    \nframe=  117 fps=8.2 q=60.0 size=       1KiB time=00:00:02.34 bitrate=   2.2kbits/s speed=0.163x elapsed=0:00:14.34    \nframe=  122 fps=8.2 q=59.0 size=       1KiB time=00:00:02.44 bitrate=   2.1kbits/s speed=0.164x elapsed=0:00:14.88    \nframe=  125 fps=8.1 q=60.0 size=       1KiB time=00:00:02.50 bitrate=   2.0kbits/s speed=0.162x elapsed=0:00:15.42    \nframe=  129 fps=8.1 q=48.0 size=       1KiB time=00:00:02.58 bitrate=   2.0kbits/s speed=0.162x elapsed=0:00:15.93    \nframe=  134 fps=8.1 q=59.0 size=     256KiB time=00:00:02.68 bitrate= 782.5kbits/s speed=0.163x elapsed=0:00:16.45    \nframe=  139 fps=8.2 q=58.0 size=     256KiB time=00:00:02.78 bitrate= 754.4kbits/s speed=0.164x elapsed=0:00:16.99    \nframe=  143 fps=8.2 q=58.0 size=     256KiB time=00:00:02.86 bitrate= 733.3kbits/s speed=0.163x elapsed=0:00:17.52    \nframe=  146 fps=8.1 q=59.0 size=     256KiB time=00:00:02.92 bitrate= 718.2kbits/s speed=0.162x elapsed=0:00:18.06    \nframe=  152 fps=8.2 q=59.0 size=     256KiB time=00:00:03.04 bitrate= 689.9kbits/s speed=0.164x elapsed=0:00:18.59    \nframe=  156 fps=8.2 q=59.0 size=     256KiB time=00:00:03.12 bitrate= 672.2kbits/s speed=0.163x elapsed=0:00:19.13    \nframe=  160 fps=8.1 q=59.0 size=     256KiB time=00:00:03.20 bitrate= 655.4kbits/s speed=0.163x elapsed=0:00:19.66    \nframe=  164 fps=8.1 q=59.0 size=     256KiB time=00:00:03.28 bitrate= 639.4kbits/s speed=0.162x elapsed=0:00:20.19    \nframe=  169 fps=8.1 q=58.0 size=     256KiB time=00:00:03.38 bitrate= 620.5kbits/s speed=0.163x elapsed=0:00:20.74    \nframe=  173 fps=8.1 q=57.0 size=     256KiB time=00:00:03.46 bitrate= 606.1kbits/s speed=0.163x elapsed=0:00:21.28    \nframe=  177 fps=8.1 q=48.0 size=     256KiB time=00:00:03.54 bitrate= 592.4kbits/s speed=0.162x elapsed=0:00:21.79    \nframe=  182 fps=8.2 q=57.0 size=     256KiB time=00:00:03.64 bitrate= 576.1kbits/s speed=0.163x elapsed=0:00:22.32    \nframe=  186 fps=8.1 q=57.0 size=     256KiB time=00:00:03.72 bitrate= 563.8kbits/s speed=0.163x elapsed=0:00:22.88    \nframe=  190 fps=8.1 q=58.0 size=     256KiB time=00:00:03.80 bitrate= 551.9kbits/s speed=0.162x elapsed=0:00:23.40    \nframe=  194 fps=8.1 q=59.0 size=     256KiB time=00:00:03.88 bitrate= 540.5kbits/s speed=0.162x elapsed=0:00:23.93    \nframe=  199 fps=8.1 q=59.0 size=     256KiB time=00:00:03.98 bitrate= 526.9kbits/s speed=0.163x elapsed=0:00:24.47    \nframe=  203 fps=8.1 q=59.0 size=     256KiB time=00:00:04.06 bitrate= 516.5kbits/s speed=0.162x elapsed=0:00:24.99    \nframe=  207 fps=8.1 q=48.0 size=     256KiB time=00:00:04.14 bitrate= 506.6kbits/s speed=0.162x elapsed=0:00:25.51    \nframe=  212 fps=8.1 q=59.0 size=     256KiB time=00:00:04.24 bitrate= 494.6kbits/s speed=0.163x elapsed=0:00:26.02    \nframe=  216 fps=8.1 q=58.0 size=     256KiB time=00:00:04.32 bitrate= 485.5kbits/s speed=0.163x elapsed=0:00:26.56    \nframe=  220 fps=8.1 q=59.0 size=     256KiB time=00:00:04.40 bitrate= 476.6kbits/s speed=0.162x elapsed=0:00:27.09    \nframe=  223 fps=8.1 q=59.0 size=     256KiB time=00:00:04.46 bitrate= 470.2kbits/s speed=0.161x elapsed=0:00:27.62    \nframe=  226 fps=8.0 q=60.0 size=     256KiB time=00:00:04.52 bitrate= 464.0kbits/s speed=0.161x elapsed=0:00:28.14    \nframe=  226 fps=7.9 q=60.0 size=     256KiB time=00:00:04.52 bitrate= 464.0kbits/s speed=0.158x elapsed=0:00:28.64    \nframe=  226 fps=7.7 q=60.0 size=     256KiB time=00:00:04.52 bitrate= 464.0kbits/s speed=0.155x elapsed=0:00:29.18    \nframe=  226 fps=7.6 q=60.0 size=     256KiB time=00:00:04.52 bitrate= 464.0kbits/s speed=0.152x elapsed=0:00:29.71    \nframe=  226 fps=7.5 q=60.0 size=     256KiB time=00:00:04.52 bitrate= 464.0kbits/s speed=0.149x elapsed=0:00:30.23    \n[out#0/webm @ 0000019099f592c0] video:961KiB audio:0KiB subtitle:0KiB other streams:0KiB global headers:0KiB muxing overhead: 0.249121%\nframe=  250 fps=8.2 q=61.0 Lsize=     964KiB time=00:00:05.00 bitrate=1578.7kbits/s speed=0.165x elapsed=0:00:30.35    \n",
  "seconds": 30.636340618133545,
  "probe_out": {}
}